<svg xmlns="http://www.w3.org/2000/svg" data-name="Layer 1" viewBox="0 0 32 40" x="0px" y="0px"><title>game pod boy pad tablet device</title><path d="M23.5,1H8.5A1.5,1.5,0,0,0,7,2.5v27A1.5,1.5,0,0,0,8.5,31h9.59a1.52,1.52,0,0,0,1.06-.44l5.41-5.41A1.52,1.52,0,0,0,25,24.09V2.5A1.5,1.5,0,0,0,23.5,1Zm-9,22H13v1.5a.5.5,0,0,1-1,0V23H10.5a.5.5,0,0,1,0-1H12V20.5a.5.5,0,0,1,1,0V22h1.5a.5.5,0,0,1,0,1ZM19,25a1,1,0,1,1,1-1A1,1,0,0,1,19,25Zm2.5-2.5a1,1,0,1,1,1-1A1,1,0,0,1,21.5,22.5Zm1.5-8a.5.5,0,0,1-.5.5H9.5a.5.5,0,0,1-.5-.5V3.5A.5.5,0,0,1,9.5,3h13a.5.5,0,0,1,.5.5Z" fill="#fff" /><text x="0" y="47" fill="#fff" font-size="5px" font-weight="bold" font-family="'Helvetica Neue', Helvetica, Arial-Unicode, Arial, Sans-serif">Created by Nur Asyrof Muhammad</text><text x="0" y="52" fill="#fff" font-size="5px" font-weight="bold" font-family="'Helvetica Neue', Helvetica, Arial-Unicode, Arial, Sans-serif">from the Noun Project</text></svg>
